<svg xmlns="http://www.w3.org/2000/svg" fill="none" viewBox="0 0 16 16"><g clip-path="url(#a)"><path fill="currentColor" fill-rule="evenodd" clip-rule="evenodd" d="M1.78916 1.38215C1.29991 1.46481 0.897066 1.75595 0.66297 2.19601C0.582698 2.34689 0.541322 2.45745 0.49145 2.65428L0.456986 2.79028L0.451882 7.91028C0.448506 11.2883 0.452282 13.082 0.462954 13.1823C0.507562 13.6011 0.66785 13.9256 0.965578 14.1999C1.16263 14.3815 1.38364 14.4986 1.69603 14.5869L1.84803 14.6299L7.92803 14.635C12.4969 14.6389 14.0438 14.6355 14.152 14.6215C14.7641 14.5421 15.2725 14.1148 15.4551 13.5263C15.5502 13.2199 15.5422 13.6888 15.5481 8.08628C15.552 4.39263 15.5485 2.92231 15.5356 2.80844C15.4877 2.38499 15.3322 2.071 15.0345 1.79663C14.8374 1.61507 14.6164 1.49798 14.304 1.40964L14.152 1.36667L8.03203 1.36403C3.0811 1.3619 1.88855 1.36537 1.78916 1.38215ZM1.98839 2.90555C1.96284 2.94452 1.95956 3.00476 1.95526 3.51355L1.95051 4.07828H7.99926H14.048V3.51723C14.048 3.18187 14.0417 2.94441 14.0324 2.92691C14.0238 2.91081 13.9939 2.88969 13.966 2.87996C13.9293 2.86718 12.2684 2.86228 7.96601 2.86228H2.01676L1.98839 2.90555ZM1.95203 9.31134C1.95203 11.7132 1.95759 13.0508 1.96769 13.0697C1.9763 13.0858 2.00617 13.1069 2.03407 13.1166C2.07076 13.1294 3.73167 13.1343 8.03404 13.1343H13.9833L14.0117 13.091C14.0386 13.0499 14.0402 12.8575 14.0442 9.31499L14.0483 5.58228H8.00015H1.95203V9.31134ZM7.81227 5.91095C7.67948 5.9467 7.56892 6.01083 7.47075 6.109C7.3702 6.20955 7.30811 6.31833 7.2719 6.45737C7.23783 6.58812 7.23865 7.12676 7.27313 7.27836C7.31929 7.48132 7.48852 7.68228 7.69603 7.78055C7.79491 7.82739 7.80987 7.8298 8.00003 7.8298C8.19019 7.8298 8.20515 7.82739 8.30403 7.78055C8.51153 7.68228 8.68076 7.48132 8.72692 7.27836C8.7614 7.12676 8.76222 6.58812 8.72815 6.45737C8.69195 6.31833 8.62985 6.20955 8.52931 6.109C8.34033 5.92003 8.06299 5.84342 7.81227 5.91095ZM10.68 7.109C10.4002 7.199 8.78705 7.92769 8.01603 8.31236C6.97855 8.82998 6.57513 9.09996 6.31529 9.45054C5.86947 10.0521 5.7679 10.8037 6.03923 11.4936C6.32943 12.2315 7.00345 12.735 7.80918 12.8157C8.43721 12.8786 9.12593 12.6179 9.53665 12.1619C9.88935 11.7703 10.514 10.5672 11.3122 8.74228C11.634 8.00649 11.624 8.03579 11.623 7.83028C11.6224 7.6867 11.6156 7.63742 11.5861 7.56268C11.5032 7.35223 11.3231 7.18465 11.1087 7.11843C10.9882 7.08119 10.7807 7.07663 10.68 7.109ZM4.59241 7.23993C4.42863 7.28395 4.25868 7.41254 4.159 7.56788C4.01811 7.78745 4.00999 8.10526 4.13947 8.33428C4.18985 8.42343 5.03531 9.27715 5.14006 9.34465C5.35667 9.48427 5.67943 9.4918 5.90302 9.36249C6.08545 9.25697 6.22243 9.07559 6.26534 8.88271C6.31604 8.65478 6.27175 8.43924 6.13713 8.25868C6.02443 8.10755 5.25231 7.35596 5.15883 7.30639C4.99003 7.21689 4.77295 7.19142 4.59241 7.23993ZM8.98403 9.51095C8.19529 9.89019 7.7082 10.1621 7.56663 10.3021C7.41958 10.4475 7.36244 10.6581 7.4147 10.862C7.53219 11.3206 8.09065 11.4757 8.42403 11.1423C8.53878 11.0275 8.84737 10.4823 9.11678 9.91828C9.33828 9.45459 9.40628 9.3103 9.40323 9.3106C9.40323 9.3106 9.21283 9.40094 8.98403 9.51095ZM3.30004 10.4385C3.16131 10.4687 3.04863 10.533 2.93603 10.6464C2.83655 10.7465 2.76492 10.8709 2.73699 10.9921C2.69579 11.1708 2.72969 11.3988 2.82051 11.5537C2.87111 11.64 3.02942 11.7921 3.11323 11.8348C3.27324 11.9165 3.31508 11.9204 3.96318 11.9152L4.56803 11.9103L4.66175 11.8664C4.87241 11.7677 5.01993 11.6085 5.08812 11.4063C5.11766 11.3187 5.1222 11.2758 5.11697 11.1343C5.11137 10.9831 5.10535 10.9551 5.05675 10.8543C4.95401 10.6413 4.73873 10.4733 4.51377 10.4306C4.38169 10.4056 3.42303 10.4118 3.30004 10.4385ZM11.4738 10.4316C11.2618 10.4732 11.043 10.6476 10.9433 10.8543C10.8947 10.9551 10.8887 10.9831 10.8831 11.1343C10.8778 11.2758 10.8824 11.3187 10.9119 11.4063C10.9801 11.6085 11.1276 11.7677 11.3383 11.8664L11.432 11.9103L12.0369 11.9152C12.685 11.9204 12.7268 11.9165 12.8868 11.8348C12.9706 11.7921 13.1289 11.64 13.1795 11.5537C13.2704 11.3988 13.3043 11.1708 13.2631 10.9921C13.2204 10.8071 13.0572 10.5972 12.8845 10.5053C12.7344 10.4254 12.636 10.4147 12.064 10.4163C11.778 10.4171 11.5124 10.424 11.4738 10.4316Z"/></g><defs><clipPath id="a"><path fill="#fff" d="M0 0h16v16H0z"/></clipPath></defs></svg>
