<svg xmlns="http://www.w3.org/2000/svg" fill="none" viewBox="0 0 16 16"><path fill="currentColor" fill-rule="evenodd" d="M10.349 4.918c.284-.016 1.089-.008 1.366.014.642.05 1.274.16 1.803.313 1.27.369 2.128.998 2.385 1.75.096.278.089.042.095 3.313.006 3.023.002 3.255-.05 3.459-.303 1.197-1.981 2.055-4.335 2.217-.305.02-1.07.021-1.374 0-1.863-.13-3.357-.712-3.994-1.558-.22-.293-.323-.535-.362-.852-.022-.189-.023-6.036 0-6.232.022-.194.064-.337.156-.526.1-.205.225-.377.413-.564.739-.74 2.194-1.237 3.898-1.334Zm4.156 7.431c-1.334.668-3.407.896-5.276.58-.69-.117-1.317-.31-1.847-.567l-.195-.094v1.171l.039.081c.05.107.219.28.38.39 1.075.728 3.298.986 5.123.594.59-.127 1.14-.338 1.509-.58.151-.099.35-.296.398-.395l.037-.075.005-.597.004-.596-.177.089Zm.007-2.934c-.92.461-2.175.712-3.565.712-1.151 0-2.175-.164-3.054-.49a5.19 5.19 0 0 1-.612-.27c-.034-.02-.065-.035-.071-.035-.005 0-.009.263-.009.586v.587l.039.084c.084.177.352.396.692.566.772.385 1.832.594 3.015.595 1.174 0 2.256-.214 3.024-.6.306-.153.576-.374.672-.546l.044-.079.005-.597c.002-.32 0-.583-.005-.596-.004 0-.084.037-.175.083Zm-4.254-3.169c-1.106.087-2.04.35-2.634.74-.247.163-.436.394-.437.533 0 .193.31.488.733.7.843.42 2.106.64 3.374.586.922-.039 1.67-.183 2.35-.453.368-.146.656-.318.843-.506.25-.251.247-.412-.01-.666-.429-.423-1.347-.757-2.469-.897-.474-.06-1.26-.077-1.75-.038Z" clip-rule="evenodd"/><path fill="currentColor" d="m10.753.334.004.002a.136.136 0 0 1 .03.015 1.62 1.62 0 0 1 .077.04l.165.15c.218.128.514.317.829.558.607.466 1.388 1.205 1.715 2.17a.857.857 0 0 1-1.578.648c-.182-.536-.67-1.048-1.206-1.458a5.554 5.554 0 0 0-.341-.245 9.993 9.993 0 0 1-.46.666c-.257.338-.58.705-.946.995-.355.28-.837.555-1.403.556-.502 0-.985-.194-1.376-.406a7.04 7.04 0 0 1-1.11-.77 10.44 10.44 0 0 1-.398-.348c-.246.489-.417.969-.417 1.274 0 .393.146 1.045.305 1.702.073.3.15.608.193.835.02.106.043.244.044.372a.857.857 0 0 1-1.556.667 2.97 2.97 0 0 1-.5-.194 10.31 10.31 0 0 1-.54-.287 17.56 17.56 0 0 1-.94-.512c-.163-.086-.32-.175-.47-.256a4.06 4.06 0 0 0-.041.21c-.126.694-.241 1.516-.241 2.137 0 .081.08.331.404.76.296.39.705.814 1.135 1.214.426.398.857.756 1.18 1.016.161.13.296.234.39.305a3.16 3.16 0 0 1 .137.113l.001.001.06.049c.284.257.33.69.093 1a.857.857 0 0 1-1.065.152h-.002l-.002-.002-.01-.007a1.485 1.485 0 0 1-.033-.024 4.09 4.09 0 0 1-.118-.091 14.1 14.1 0 0 1-.416-.327 19.23 19.23 0 0 1-1.265-1.09 13.424 13.424 0 0 1-1.309-1.408C.365 10.214 0 9.618 0 9.01c0-.76.137-1.69.266-2.4a15.4 15.4 0 0 1 .179-.905 3.69 3.69 0 0 1 .06-.168l.007-.021v-.002l.235-.984.888.507a.062.062 0 0 0 .005.003l.006.003.02.012.082.047c.071.04.175.098.3.167.25.14.586.324.934.508.11.058.222.115.331.17-.132-.558-.28-1.244-.28-1.76 0-.691.33-1.456.588-1.962a9.07 9.07 0 0 1 .504-.956l.033-.052.003-.005.55-.812.653.731a.062.062 0 0 1 .004.004l.016.016c.011.012.028.032.052.057.047.05.118.122.205.21.176.176.42.41.698.64.282.233.583.45.869.605.298.163.512.22.638.22.063 0 .212-.037.451-.225.228-.18.462-.438.682-.725a9.75 9.75 0 0 0 .748-1.09l.006-.009.342-.667.678.334Z"/></svg>
