<svg xmlns="http://www.w3.org/2000/svg" width="16" height="16" fill="none" viewBox="0 0 16 16"><g clip-path="url(#a)"><path fill="currentColor" d="M9.843 1.026a1.714 1.714 0 0 1 2.422 0l2.71 2.709a1.714 1.714 0 0 1 0 2.422l-8.076 8.077a1 1 0 0 1-.091.074q-.02.013-.04.024l-.061.032-.045.02a1 1 0 0 1-.103.031h-.001l-.004.001-5.234 1.047a.667.667 0 0 1-.783-.782l1.048-5.24a1 1 0 0 1 .031-.11l.016-.034a.7.7 0 0 1 .119-.179l.016-.017 6.147-6.148.008-.008.009-.008zM2.037 13.962l3.042-.608-2.435-2.434zm1.14-4.392 3.252 3.252 5.214-5.215-3.251-3.251zm8.148-7.604a.384.384 0 0 0-.542 0l-1.45 1.448 3.25 3.252 1.451-1.449a.384.384 0 0 0 0-.542z"/></g><defs><clipPath id="a"><path fill="#fff" d="M0 0h16v16H0z"/></clipPath></defs></svg>
