<svg viewBox="0 0 16 16" fill="none" xmlns="http://www.w3.org/2000/svg">
<path fill-rule="evenodd" clip-rule="evenodd" d="M10.3953 0.254585C10.9844 -0.00823301 11.9289 -0.233269 12.6341 0.471238C13.339 1.17658 13.1156 2.12277 12.8527 2.71194C12.5689 3.34775 12.0906 3.94928 11.6914 4.34855C11.5737 4.4662 11.4368 4.58913 11.2883 4.71354H13.6734C14.6391 4.71366 15.4222 5.49668 15.4223 6.46238V7.24214C15.4222 7.87674 15.0607 8.42583 14.5332 8.6982V14.2512C14.533 15.2167 13.7499 15.9997 12.7844 16H3.21651C2.25078 16 1.46788 15.2168 1.46767 14.2512V8.6982C0.939775 8.42595 0.577686 7.87702 0.577637 7.24214V6.46238C0.577736 5.49661 1.36068 4.71354 2.32648 4.71354H4.71161C4.56334 4.58924 4.4271 4.46609 4.30954 4.34855C3.91028 3.94929 3.43114 3.34789 3.14722 2.71194C2.88432 2.12277 2.6599 1.17658 3.36485 0.471238C4.07 -0.233685 5.01533 -0.00823578 5.60458 0.254585C6.24041 0.538438 6.84289 1.01573 7.24216 1.41495C7.48609 1.6589 7.75904 1.97943 7.99947 2.33621C8.24 1.97922 8.51372 1.65901 8.75776 1.41495C9.1571 1.01566 9.7594 0.538413 10.3953 0.254585ZM2.96668 14.2512C2.96688 14.389 3.07866 14.501 3.21651 14.501H4.93022V8.88168H2.96668V14.2512ZM6.42922 14.501H9.5707V8.88168H6.42922V14.501ZM11.0697 14.501H12.7844C12.922 14.5007 13.034 14.3888 13.0342 14.2512V8.88168H11.0697V14.501ZM2.32648 6.21255C2.18856 6.21255 2.07674 6.32449 2.07664 6.46238V7.24214C2.07671 7.31953 2.13977 7.38267 2.21717 7.38267H4.93022V6.21255H2.32648ZM6.42922 7.38267H9.5707V6.21255H6.42922V7.38267ZM11.0697 7.38267H13.7837C13.8609 7.38241 13.9232 7.31937 13.9233 7.24214V6.46238C13.9232 6.32456 13.8113 6.21267 13.6734 6.21255H11.0697V7.38267ZM5.00244 1.6033C4.53662 1.39557 4.42173 1.50576 4.41006 1.51742C4.39566 1.53214 4.29353 1.64952 4.49789 2.10785C4.68583 2.52893 5.03791 2.98548 5.35474 3.30237C5.67155 3.61913 6.12727 3.97123 6.54829 4.15922C7.01176 4.36602 7.12785 4.25978 7.14067 4.24705C7.15277 4.23489 7.2602 4.11955 7.05283 3.65467C6.86484 3.23369 6.51369 2.77693 6.19696 2.46015C5.88012 2.14337 5.42346 1.79126 5.00244 1.6033ZM11.5889 1.51742C11.5761 1.50471 11.4607 1.39672 10.9975 1.6033C10.5764 1.79123 10.1198 2.14333 9.80296 2.46015C9.48618 2.77697 9.1341 3.23363 8.94611 3.65467C8.73751 4.1224 8.84931 4.23613 8.86023 4.24705C8.87458 4.26113 8.99124 4.36412 9.45066 4.15922C9.87178 3.97126 10.3283 3.61922 10.6452 3.30237C10.962 2.98547 11.3141 2.52893 11.502 2.10785C11.7074 1.64717 11.6025 1.53117 11.5889 1.51742Z" fill="currentColor"/>
</svg>
