<svg xmlns="http://www.w3.org/2000/svg" width="16" height="16" fill="none" viewBox="0 0 16 16"><path fill="currentColor" fill-rule="evenodd" d="M1.385 2.931a.6.6 0 0 0-.269.166.65.65 0 0 0-.19.37c-.025.159-.025 9.214 0 9.372a.68.68 0 0 0 .374.501l.103.051h13.194l.103-.05a.68.68 0 0 0 .373-.502c.026-.159.026-9.213 0-9.372a.8.8 0 0 0-.062-.2.76.76 0 0 0-.315-.305l-.099-.047-6.57-.003c-5.263-.003-6.584 0-6.642.02m1.98 1.34c.033.031 3.41 2.63 3.779 2.907.287.217.524.3.856.3s.57-.083.857-.3c.367-.277 3.745-2.876 3.778-2.907.034-.032-.084-.033-4.635-.033-4.55 0-4.67 0-4.634.033M2.259 8.594v3.474h11.484V8.594c0-1.91-.004-3.474-.008-3.474-.005 0-.926.706-2.048 1.57a169 169 0 0 1-2.21 1.684c-.39.262-.798.402-1.264.433-.64.043-1.19-.098-1.688-.433-.094-.063-1.089-.821-2.211-1.685A367 367 0 0 0 2.266 5.12c-.005 0-.008 1.563-.008 3.474" clip-rule="evenodd"/></svg>
