<svg xmlns="http://www.w3.org/2000/svg" width="16" height="16" fill="none" viewBox="0 0 16 16"><path fill="currentColor" d="M10.252 2a9 9 0 0 0-.424.858 12.4 12.4 0 0 0-3.663 0A9 9 0 0 0 5.74 2c-1.139.195-2.25.536-3.302 1.018C.35 6.11-.214 9.122.068 12.093a13.3 13.3 0 0 0 4.048 2.032c.329-.44.62-.91.868-1.397a9 9 0 0 1-1.365-.651c.114-.083.226-.17.335-.252a9.5 9.5 0 0 0 8.095 0q.162.135.335.252a8.7 8.7 0 0 1-1.369.654c.249.488.54.957.868 1.398a13.3 13.3 0 0 0 4.05-2.03c.33-3.446-.569-6.433-2.378-9.078a13 13 0 0 0-3.3-1.015zm-4.91 8.264c-.789 0-1.443-.714-1.443-1.598s.629-1.602 1.44-1.602 1.454.721 1.442 1.602c-.013.88-.635 1.598-1.44 1.598m5.316 0c-.792 0-1.44-.714-1.44-1.598s.63-1.602 1.44-1.602 1.451.721 1.439 1.602c-.013.88-.635 1.598-1.44 1.598"/></svg>
