<svg xmlns="http://www.w3.org/2000/svg" width="16" height="16" fill="none" viewBox="0 0 16 16"><g clip-path="url(#a)"><path fill="currentColor" fill-rule="evenodd" d="M8 0a8 8 0 1 1 0 16A8 8 0 0 1 8 0m3.27 4.816c-.3.006-.762.167-2.983 1.09q-1.168.486-4.666 2.01-.567.225-.595.441c-.034.277.364.363.865.526.408.133.957.288 1.243.295q.389.008.868-.322 3.263-2.202 3.374-2.229c.05-.011.12-.026.166.016s.042.12.037.141c-.04.17-2.086 2.031-2.204 2.154-.45.467-.962.753-.173 1.273.683.45 1.081.738 1.785 1.2.45.294.803.644 1.268.602.214-.02.435-.221.547-.82.265-1.417.786-4.488.906-5.753.01-.11-.003-.252-.014-.314a.34.34 0 0 0-.113-.217.53.53 0 0 0-.31-.093" clip-rule="evenodd"/></g><defs><clipPath id="a"><path fill="#fff" d="M0 0h16v16H0z"/></clipPath></defs></svg>
