<svg xmlns="http://www.w3.org/2000/svg" width="16" height="16" fill="none" viewBox="0 0 16 16"><path fill="currentColor" fill-rule="evenodd" d="M1.772 1.411c-.61.13-1.102.6-1.265 1.209l-.04.151v10.548l.05.162c.167.534.55.915 1.088 1.084l.158.05h12.384l.153-.04a1.71 1.71 0 0 0 1.192-1.184l.041-.144.005-5.19c.004-5.02.003-5.194-.03-5.354-.123-.608-.554-1.077-1.164-1.267l-.161-.051-6.129-.003c-5.855-.003-6.136-.002-6.282.029m.207 1.33a.27.27 0 0 0-.161.17c-.023.054-.028.164-.028.642v.577h12.42v-.577c0-.478-.005-.587-.028-.642a.27.27 0 0 0-.161-.17c-.07-.031-.286-.032-6.021-.032s-5.952.001-6.021.033M1.79 9.284c0 3.78 0 3.82.036 3.879a.3.3 0 0 0 .094.094c.059.036.103.036 6.044.035 5.77 0 5.988-.001 6.057-.033a.27.27 0 0 0 .161-.169c.025-.059.028-.485.028-3.846V5.462H1.79zm3.058-2.397a.66.66 0 0 0-.55.5c-.032.138-.032.784 0 .923.061.259.285.465.543.5a.68.68 0 0 0 .707-.376l.049-.1v-.972l-.049-.1a.675.675 0 0 0-.7-.375m6.11 0a.69.69 0 0 0-.506.375l-.049.1v.972l.049.1a.68.68 0 0 0 .707.376.66.66 0 0 0 .547-.529c.011-.058.02-.253.02-.433 0-.369-.018-.502-.086-.627a.8.8 0 0 0-.302-.283.74.74 0 0 0-.38-.051M5.046 9.809a.71.71 0 0 0-.425.414.8.8 0 0 0-.03.234c-.001.174.036.264.202.498a3.71 3.71 0 0 0 2.712 1.525c.728.055 1.369-.006 1.872-.178a3.7 3.7 0 0 0 1.832-1.35c.164-.23.201-.321.2-.495a.62.62 0 0 0-.129-.413.666.666 0 0 0-.805-.202c-.136.063-.181.105-.338.318a2.8 2.8 0 0 1-.577.573c-.164.113-.49.27-.669.323-.272.081-.427.098-.891.098s-.618-.017-.891-.098a3 3 0 0 1-.669-.323 2.8 2.8 0 0 1-.577-.573c-.157-.212-.202-.255-.338-.318a.76.76 0 0 0-.48-.033" clip-rule="evenodd"/></svg>
