<svg xmlns="http://www.w3.org/2000/svg" fill="none" viewBox="0 0 160 160"><path fill="#3164FA" fill-rule="evenodd" d="M81.082 104.854c13.278 0 24.041-10.764 24.041-24.041 0-13.278-10.763-24.041-24.04-24.041-13.278 0-24.042 10.763-24.042 24.04 0 13.278 10.764 24.042 24.041 24.042Zm-2.318-38.466c.711 0 1.288.577 1.288 1.288v14.167h14.167a1.288 1.288 0 1 1 0 2.576H78.764a1.288 1.288 0 0 1-1.288-1.288V67.676c0-.711.577-1.288 1.288-1.288Z" clip-rule="evenodd"/><path fill="#001F5C" fill-rule="evenodd" d="M65.758 36.4a.915.915 0 0 1-.002-.063v-.085c0-3.932 0-9.196 1.88-13.482.958-2.187 2.415-4.148 4.622-5.556C74.463 15.81 77.346 15 81.082 15c3.737 0 6.62.809 8.824 2.214 2.208 1.408 3.665 3.37 4.624 5.556 1.879 4.286 1.879 9.55 1.879 13.482v.084c0 .082-.011.16-.031.236a47.184 47.184 0 0 1 31.593 42.895 47.177 47.177 0 0 1-38.15 47.96 47.177 47.177 0 0 1-52.564-28.193l-2.538 5.443a.902.902 0 0 1-1.634-.762l3.429-7.354a.902.902 0 0 1 1.198-.436l7.353 3.429a.902.902 0 0 1-.761 1.634l-5.311-2.477a45.376 45.376 0 0 0 50.485 26.946 45.376 45.376 0 0 0-3.129-89.583A45.378 45.378 0 0 0 37.2 68.606a.902.902 0 0 1-1.733-.497A47.181 47.181 0 0 1 65.758 36.4Zm1.801-.566c.004-3.927.085-8.593 1.727-12.34.845-1.927 2.092-3.58 3.942-4.76 1.852-1.18 4.379-1.93 7.854-1.93 3.476 0 6.002.75 7.855 1.93 1.85 1.18 3.097 2.833 3.941 4.76 1.665 3.797 1.725 8.539 1.728 12.498a47.17 47.17 0 0 0-27.047-.158Z" clip-rule="evenodd"/></svg>